# xmcd
# 
# Track frame offsets:
#     150
#     11938
#     24903
#     38290
#     55322
#     66947
#     81603
#     92241
#     111407
#     124047
#     141344
#     158787
#     177017
#     184383
#     200514
#     211886
#     223822
#     238662
#     253874
#     270037
#     295974
# 
# Disc length: 4165
# 
# Revision: 1
# Processed by: cddbd v1.5.2PL0 Copyright (c) Steve Scherf et al.
# Submitted via: fre:ac v1.0.31
# 
DISCID=3b104315
DTITLE=MTJ - 20
DYEAR=2001
DGENRE=Country
TTITLE0=Kauboi
TTITLE1=Kambrike
TTITLE2=Margareta
TTITLE3=Armastus j‰‰b
TTITLE4=Tiina, Tiina
TTITLE5=Perekonnapea
TTITLE6=’nnelik mees
TTITLE7=Limusiin
TTITLE8=Need asjad k‰ivad kokku
TTITLE9=Pıllumees
TTITLE10=Kurjavaimu lugu
TTITLE11=Lilled poes
TTITLE12=Texase kaunitar
TTITLE13=Tuleviku muinasjutt
TTITLE14=Pilvevatimees
TTITLE15=Armastus on elust
TTITLE16=Gloryland
TTITLE17=Hilisıhtune ratsamees
TTITLE18=Rukkilill
TTITLE19=Priidu
TTITLE20=Data track
EXTD=
EXTT0=
EXTT1=
EXTT2=
EXTT3=
EXTT4=
EXTT5=
EXTT6=
EXTT7=
EXTT8=
EXTT9=
EXTT10=
EXTT11=
EXTT12=
EXTT13=
EXTT14=
EXTT15=
EXTT16=
EXTT17=
EXTT18=
EXTT19=
EXTT20=
PLAYORDER=
